<svg width="227" height="165" viewBox="0 0 227 165" fill="none" xmlns="http://www.w3.org/2000/svg">
<path fill-rule="evenodd" clip-rule="evenodd" d="M112.656 0.96759C193.15 0.96759 226.725 21.0062 226.725 79.4171C226.725 138.026 197.96 164.518 112.438 164.518C27.1342 164.518 0.230377 138.026 0.230377 79.4171C0.230377 21.0062 32.1431 0.96759 112.656 0.96759ZM169.628 87.263C169.394 88.6599 169.497 90.7253 171.807 91.7309L177.612 94.2692C177.612 94.2692 156.311 111.276 149.337 117.07C147.973 118.196 144.69 121.489 145.821 125.011L148.31 132.73L119.16 128.305C117.677 128.18 114.47 128.441 114.671 133.159L115.5 164.5H111L112.29 133.159C112.491 128.436 109.295 128.18 107.801 128.305L78.6509 132.73L81.1403 125.011C82.2708 121.489 78.9824 118.196 77.6236 117.07C70.6446 111.276 49.3435 94.2692 49.3435 94.2692L55.1539 91.7309C57.4639 90.7308 57.5726 88.6599 57.3335 87.263L51.8275 67.8697L70.3946 71.7288C71.0468 71.8103 72.8133 71.6799 73.7319 68.0328L75.3679 61.4343L88.2443 76.2076C88.2443 76.2076 96.5766 85.2465 93.9622 71.4462L88.3801 41.9595L98.7127 47.0904C99.2997 47.3187 101.338 47.6068 104.039 42.4976L113.481 24.6262L122.927 42.4976C125.629 47.6122 127.667 47.3187 128.254 47.0904L138.597 41.9595L133.004 71.4462C130.39 85.2465 138.728 76.2076 138.728 76.2076L151.604 61.4343L153.24 68.0328C154.159 71.6799 155.936 71.8158 156.572 71.7288L175.139 67.8697L169.628 87.263Z" fill="#F80B01"/>
</svg>
