<svg width="296" height="214" viewBox="0 0 296 214" fill="none" xmlns="http://www.w3.org/2000/svg">
<path fill-rule="evenodd" clip-rule="evenodd" d="M146.797 0C251.898 0 295.738 26.1648 295.738 102.433C295.738 178.959 258.179 213.551 146.512 213.551C35.1287 213.551 0 178.959 0 102.433C0 26.1648 41.6689 0 146.797 0ZM221.185 112.677C220.879 114.501 221.014 117.198 224.03 118.511L231.61 121.825C231.61 121.825 203.797 144.032 194.691 151.597C192.91 153.066 188.624 157.367 190.1 161.966L193.35 172.044L155.289 166.267C153.351 166.104 149.164 166.444 149.427 172.604L150.509 213.527H144.634L146.318 172.604C146.581 166.437 142.408 166.104 140.456 166.267L102.395 172.044L105.645 161.966C107.121 157.367 102.828 153.066 101.054 151.597C91.941 144.032 64.1278 121.825 64.1278 121.825L71.7145 118.511C74.7307 117.205 74.8727 114.501 74.5604 112.677L67.3711 87.3552L91.6145 92.394C92.4661 92.5005 94.7727 92.3302 95.9721 87.5681L98.1083 78.9523L114.921 98.242C114.921 98.242 125.801 110.044 122.387 92.025L115.099 53.5237L128.59 60.2233C129.356 60.5214 132.018 60.8975 135.545 54.2263L147.872 30.8914L160.207 54.2263C163.734 60.9046 166.396 60.5214 167.162 60.2233L180.668 53.5237L173.365 92.025C169.951 110.044 180.838 98.242 180.838 98.242L197.651 78.9523L199.787 87.5681C200.986 92.3302 203.307 92.5076 204.138 92.394L228.381 87.3552L221.185 112.677Z" fill="#F80B01"/>
</svg>
