<?xml version="1.0" encoding="UTF-8" standalone="no"?>
<!DOCTYPE svg PUBLIC "-//W3C//DTD SVG 1.1//EN" "http://www.w3.org/Graphics/SVG/1.1/DTD/svg11.dtd">
<svg width="100%" height="100%" viewBox="0 0 1020 125" version="1.1" xmlns="http://www.w3.org/2000/svg" xmlns:xlink="http://www.w3.org/1999/xlink" xml:space="preserve" xmlns:serif="http://www.serif.com/" style="fill-rule:evenodd;clip-rule:evenodd;stroke-linejoin:round;stroke-miterlimit:2;">
    <g transform="matrix(1,0,0,1,-343.801,-519.195)">
        <g transform="matrix(15.0917,0,0,15.0917,-6465.01,-7510.15)">
            <path d="M462.604,535.999C462.604,533.049 460.908,532.037 456.842,532.037C452.775,532.037 451.163,533.049 451.163,535.999C451.163,538.959 452.522,540.297 456.831,540.297C461.151,540.297 462.604,538.959 462.604,535.999ZM456.852,537.663C455.978,537.663 455.63,537.221 455.63,535.988C455.63,534.819 455.978,534.429 456.852,534.429C457.726,534.429 458.074,534.819 458.074,535.988C458.074,537.21 457.726,537.663 456.852,537.663Z" style="fill-rule:nonzero;"/>
        </g>
        <g transform="matrix(15.0917,0,0,15.0917,-6465.01,-7510.15)">
            <path d="M467.64,535.883C469.105,535.904 470.705,535.832 471.232,535.843C471.282,534.986 471.227,534.186 471.206,533.356C470.353,533.366 468.979,533.375 467.704,533.375L467.746,532.164C467.166,532.185 464.343,532.185 463.669,532.164C463.679,532.522 463.69,532.933 463.69,533.365L462.984,533.354C463.005,534.039 462.994,535.072 462.984,535.841L463.637,535.841C463.626,536.536 463.605,537.147 463.605,537.6C463.605,539.212 464.469,540.224 467.63,540.224C469.021,540.224 470.159,540.118 471.17,539.939C471.043,539.033 470.938,537.906 470.896,537.031C470.369,537.158 469.727,537.231 468.842,537.231C467.862,537.231 467.64,537.063 467.64,536.61L467.64,535.883Z" style="fill-rule:nonzero;"/>
        </g>
        <g transform="matrix(15.0917,0,0,15.0917,-6470.28,-7510.15)">
            <path d="M476.206,535.883C477.67,535.904 479.008,535.925 479.535,535.936C479.525,535.082 479.567,534.187 479.598,533.354C478.745,533.365 477.544,533.375 476.269,533.375L476.311,532.164C475.732,532.185 474.963,532.195 474.278,532.195C473.593,532.195 472.908,532.185 472.234,532.164C472.245,532.522 472.255,532.933 472.255,533.365L471.549,533.354C471.57,534.039 471.56,535.072 471.549,535.841L472.202,535.841C472.192,536.536 472.171,537.147 472.171,537.6C472.171,539.212 473.035,540.224 476.195,540.224C477.586,540.224 478.724,540.118 479.735,539.939C479.609,539.033 479.504,537.906 479.461,537.031C478.935,537.158 478.292,537.231 477.407,537.231C476.427,537.231 476.206,537.063 476.206,536.61L476.206,535.883Z" style="fill-rule:nonzero;"/>
        </g>
        <g transform="matrix(15.0917,0,0,15.0917,-6474.43,-7510.48)">
            <path d="M485.688,537.347C485.688,538.095 485.33,538.411 484.719,538.411C484.16,538.411 483.95,538.264 483.95,537.853C483.95,537.453 484.202,537.284 484.856,537.284C485.14,537.284 485.414,537.295 485.688,537.316L485.688,537.347ZM485.688,536.483C485.267,536.431 484.666,536.41 483.939,536.41C481.326,536.41 480.252,536.926 480.252,538.38C480.252,539.781 481.105,540.245 482.917,540.245C484.371,540.245 485.351,539.823 485.709,538.928L485.751,538.928C485.741,539.096 485.741,539.254 485.741,539.349C485.741,540.066 485.835,540.118 486.573,540.118L489.755,540.118C489.649,539.813 489.597,538.959 489.597,538.264C489.597,537.4 489.628,536.768 489.628,535.809C489.628,534.008 488.427,533.175 485.003,533.175C481.537,533.175 480.399,533.913 480.473,536.125C480.852,536.083 481.674,536.073 482.432,536.073C483.086,536.073 483.676,536.083 484.023,536.115C483.96,535.504 484.181,535.261 484.866,535.261C485.519,535.261 485.688,535.472 485.688,536.062L485.688,536.483Z" style="fill-rule:nonzero;"/>
        </g>
        <g transform="matrix(12.937,0,0,12.937,-5426.55,-6346.91)">
            <path d="M501.375,535.63C500.375,535.651 499.384,535.651 498.626,535.651C497.878,535.651 496.866,535.651 495.865,535.63C495.876,535.83 495.876,536.104 495.876,536.41C495.876,536.589 495.876,537.137 495.865,537.326C496.297,537.316 496.792,537.305 497.277,537.305C497.161,537.895 496.835,538.127 496.171,538.127C495.138,538.127 494.812,537.558 494.812,536.115C494.812,534.608 495.128,534.081 496.034,534.081C496.761,534.081 497.077,534.303 497.077,534.85C497.077,534.924 497.077,535.019 497.066,535.103C497.635,535.072 498.352,535.061 499.1,535.061C499.89,535.061 500.701,535.082 501.386,535.103C501.397,534.956 501.397,534.819 501.397,534.682C501.407,532.922 500.206,532.027 496.066,532.027C492.157,532.027 490.355,532.933 490.355,536.073C490.355,539.244 492.199,540.308 496.034,540.308C500.796,540.308 501.597,539.065 501.375,535.63Z" style="fill-rule:nonzero;"/>
        </g>
        <g transform="matrix(15.0917,0,0,15.0917,-6516.01,-7510.15)">
            <path d="M508.045,533.354C508.066,533.987 508.066,534.629 508.066,536.494C508.066,537.316 507.665,537.59 507.149,537.59C506.622,537.59 506.411,537.368 506.411,536.8C506.411,535.356 506.411,534.197 506.454,533.354L502.239,533.354C502.292,534.039 502.292,534.713 502.292,535.546C502.292,536.315 502.26,536.915 502.26,538.032C502.26,539.655 503.377,540.276 505.063,540.276C506.654,540.276 507.602,539.802 508.066,538.717L508.129,538.728C508.108,539.212 508.108,539.602 508.097,540.118L512.248,540.118C512.217,539.159 512.206,538.18 512.206,536.757C512.206,535.251 512.217,534.334 512.248,533.354L508.045,533.354Z" style="fill-rule:nonzero;"/>
        </g>
        <g transform="matrix(15.0917,0,0,15.0917,-6522.01,-7510.15)">
            <path d="M518.433,537.347C518.433,538.095 518.074,538.411 517.463,538.411C516.905,538.411 516.694,538.264 516.694,537.853C516.694,537.453 516.947,537.284 517.6,537.284C517.885,537.284 518.159,537.295 518.433,537.316L518.433,537.347ZM518.433,536.483C518.011,536.431 517.411,536.41 516.684,536.41C514.071,536.41 512.996,536.926 512.996,538.38C512.996,539.781 513.85,540.245 515.662,540.245C517.116,540.245 518.095,539.823 518.454,538.928L518.496,538.928C518.485,539.096 518.485,539.254 518.485,539.349C518.485,540.066 518.58,540.118 519.318,540.118L522.499,540.118C522.394,539.813 522.341,538.959 522.341,538.264C522.341,537.4 522.373,536.768 522.373,535.809C522.373,534.008 521.172,533.175 517.748,533.175C514.282,533.175 513.144,533.913 513.217,536.125C513.597,536.083 514.419,536.073 515.177,536.073C515.83,536.073 516.42,536.083 516.768,536.115C516.705,535.504 516.926,535.261 517.611,535.261C518.264,535.261 518.433,535.472 518.433,536.062L518.433,536.483Z" style="fill-rule:nonzero;"/>
        </g>
    </g>
</svg>
