<svg width="1338" height="164" viewBox="0 0 1338 164" fill="none" xmlns="http://www.w3.org/2000/svg">
<g clip-path="url(#clip0_3_3)">
<path d="M226.502 78.4461C226.502 20.0352 192.927 -0.00344849 112.433 -0.00344849C31.9201 -0.00344849 0.00738525 20.0352 0.00738525 78.4461C0.00738525 137.055 26.9112 163.547 112.215 163.547C197.737 163.547 226.502 137.055 226.502 78.4461ZM112.631 111.394C95.3287 111.394 88.4397 102.641 88.4397 78.2274C88.4397 55.0808 95.3287 47.3595 112.631 47.3595C129.933 47.3595 136.823 55.0808 136.823 78.2274C136.823 102.423 129.933 111.394 112.631 111.394Z" fill="#F1F5E7"/>
<path d="M326.199 76.1489C355.201 76.5647 386.875 75.1395 397.308 75.3573C398.298 58.3885 397.209 42.5482 396.793 26.114C379.907 26.312 352.706 26.4898 327.466 26.4898L328.297 2.51166C316.815 2.92746 260.929 2.92746 247.586 2.51166C247.783 9.60017 248.001 17.7379 248.001 26.2916L234.025 26.0741C234.441 39.6373 234.223 60.091 234.025 75.3174H246.952C246.734 89.0787 246.319 101.176 246.319 110.146C246.319 142.064 263.423 162.102 326 162.102C353.538 162.102 376.067 160.004 396.081 156.46C393.567 138.52 391.488 116.205 390.656 98.8799C380.224 101.394 367.514 102.84 349.994 102.84C330.593 102.84 326.199 99.5131 326.199 90.5435V76.1489Z" fill="#F1F5E7"/>
<path d="M488.865 76.1489C517.847 76.5647 544.335 76.9801 554.768 77.1979C554.57 60.2884 555.401 42.5677 556.015 26.0741C539.129 26.2919 515.353 26.4898 490.112 26.4898L490.943 2.51166C479.481 2.92746 464.258 3.12558 450.697 3.12558C437.136 3.12558 423.575 2.92746 410.232 2.51166C410.45 9.60017 410.648 17.7379 410.648 26.2916L396.671 26.0741C397.087 39.6373 396.889 60.091 396.671 75.3174H409.598C409.4 89.0787 408.985 101.176 408.985 110.146C408.985 142.064 426.089 162.102 488.647 162.102C516.184 162.102 538.713 160.004 558.727 156.46C556.233 138.52 554.154 116.205 553.303 98.8799C542.89 101.394 530.161 102.84 512.641 102.84C493.24 102.84 488.865 99.5131 488.865 90.5435V76.1489Z" fill="#F1F5E7"/>
<path d="M671.133 104.704C671.133 119.514 664.046 125.772 651.95 125.772C640.884 125.772 636.727 122.861 636.727 114.723C636.727 106.803 641.715 103.456 654.662 103.456C660.285 103.456 665.709 103.674 671.133 104.09V104.704ZM671.133 87.5959C662.799 86.5663 650.901 86.1505 636.509 86.1505C584.78 86.1505 563.519 96.3681 563.519 125.158C563.519 152.898 580.405 162.085 616.276 162.085C645.061 162.085 664.462 153.729 671.549 136.008H672.381C672.183 139.334 672.183 142.463 672.183 144.344C672.183 158.541 674.044 159.57 688.654 159.57H751.647C749.549 153.531 748.519 136.622 748.519 122.86C748.519 105.753 749.133 93.24 749.133 74.2515C749.133 38.5911 725.357 22.0968 657.573 22.0968C588.957 22.0968 566.428 36.7097 567.893 80.508C575.396 79.6764 591.669 79.4783 606.675 79.4783C619.622 79.4783 631.303 79.6762 638.172 80.3098C636.925 68.2118 641.3 63.4002 654.86 63.4002C667.788 63.4002 671.133 67.5786 671.133 79.2608V87.5959Z" fill="#F1F5E7"/>
<path d="M939.141 83.1023C922.171 83.4588 905.354 83.4587 892.49 83.4587C879.796 83.4587 862.622 83.4588 845.635 83.1023C845.822 86.497 845.822 91.1472 845.822 96.341C845.822 99.3792 845.822 108.681 845.635 111.889C852.966 111.719 861.367 111.532 869.597 111.532C867.629 121.547 862.096 125.485 850.828 125.485C833.298 125.485 827.766 115.827 827.766 91.3342C827.766 65.7553 833.128 56.8105 848.503 56.8105C860.84 56.8105 866.203 60.5782 866.203 69.8626C866.203 71.1187 866.203 72.732 866.017 74.1578C875.673 73.6316 887.84 73.444 900.534 73.444C913.941 73.444 927.703 73.8013 939.328 74.1578C939.515 71.6627 939.515 69.337 939.515 67.0117C939.685 37.1386 919.303 21.9469 849.046 21.9469C782.709 21.9469 752.129 37.3251 752.129 90.6214C752.129 144.444 783.422 162.503 848.503 162.503C929.316 162.503 942.909 141.406 939.141 83.1023Z" fill="#F1F5E7"/>
<path d="M1059.19 26.0745C1059.6 38.6081 1059.6 51.3201 1059.6 88.2477C1059.6 104.524 1051.66 109.949 1041.45 109.949C1031.02 109.949 1026.84 105.553 1026.84 94.306C1026.84 65.7144 1026.84 42.7661 1027.69 26.0745H944.247C945.296 39.6377 945.296 52.9834 945.296 69.4771C945.296 84.7035 944.662 96.5829 944.662 118.7C944.662 150.836 966.775 163.132 1000.15 163.132C1031.65 163.132 1050.42 153.746 1059.6 132.263L1060.85 132.482C1060.43 142.065 1060.43 149.786 1060.22 160.003H1142.39C1141.78 141.015 1141.56 121.631 1141.56 93.4552C1141.56 63.636 1141.78 45.4788 1142.39 26.0745H1059.19Z" fill="#F1F5E7"/>
<path d="M1256.96 105.137C1256.96 119.947 1249.86 126.205 1237.76 126.205C1226.72 126.205 1222.54 123.294 1222.54 115.157C1222.54 107.236 1227.55 103.89 1240.47 103.89C1246.12 103.89 1251.54 104.107 1256.96 104.523V105.137ZM1256.96 88.029C1248.61 86.9994 1236.73 86.5836 1222.34 86.5836C1170.61 86.5836 1149.33 96.8012 1149.33 125.591C1149.33 153.331 1166.24 162.518 1202.11 162.518C1230.89 162.518 1250.27 154.162 1257.38 136.441H1258.21C1257.99 139.767 1257.99 142.896 1257.99 144.777C1257.99 158.974 1259.87 160.003 1274.48 160.003H1337.46C1335.38 153.964 1334.33 137.055 1334.33 123.293C1334.33 106.186 1334.96 93.6731 1334.96 74.6846C1334.96 39.0242 1311.19 22.5299 1243.4 22.5299C1174.79 22.5299 1152.26 37.1428 1153.7 80.9411C1161.23 80.1095 1177.5 79.9114 1192.51 79.9114C1205.43 79.9114 1217.11 80.1093 1224 80.7429C1222.76 68.6449 1227.13 63.8333 1240.69 63.8333C1253.62 63.8333 1256.96 68.0117 1256.96 79.6939V88.029Z" fill="#F1F5E7"/>
</g>
<defs>
<clipPath id="clip0_3_3">
<rect width="1338" height="164" fill="white"/>
</clipPath>
</defs>
</svg>
